# xmcd CD database file
#
# Track frame offsets:
#	150
#	46610
#	87467
#	143725
#	169040
#	216150
#
# Disc length: 3666 seconds
#
# Revision: 0
# Processed by: cddbd v1.4PL0 Copyright (c) Steve Scherf et al.
# Submitted via: CDex 1.50Beta5
#
DISCID=4a0e5006
DTITLE=George Benson - Blue Bossa
DYEAR=1972
DGENRE=Blues
TTITLE0=Blue Bossa
TTITLE1=(I'm Afraid) The Masquerade Is Over
TTITLE2=All Blues
TTITLE3=Lil' Darlin'
TTITLE4=Witchcraft
TTITLE5=Dahlin's Delight
EXTD=YEAR: 1972
EXTT0=
EXTT1=
EXTT2=
EXTT3=
EXTT4=
EXTT5=
PLAYORDER=
